<svg width="154" height="27" viewBox="0 0 154 27" fill="none" xmlns="http://www.w3.org/2000/svg">
<path fill-rule="evenodd" clip-rule="evenodd" d="M79.0746 12.0388V0.00971822H86.5032V27L58.2087 0.0194068H66.4671L79.0746 12.0388Z" fill="#A20836"/>
<path fill-rule="evenodd" clip-rule="evenodd" d="M26.3349 7.41749C26.3349 1.13594 23.1055 0.0194068 17.5966 0.0194068H0V26.9126H7.37857V16.7573H10.138L21.2659 26.9126H30.2441L19.6662 16.7864C23.4854 16.6699 26.3249 15.4563 26.3249 7.41749H26.3349ZM154 27L140.743 0.0194068H130.935L117.677 27H125.566L128.045 22.3689H143.622L146.062 27H154ZM131.064 16.7767L135.954 5.69903L140.723 16.7767H131.064ZM120.167 6.28156H109.399V27H101.99V6.28156H91.5422V0.0194068H120.167V6.28156ZM71.5761 27L66.907 22.5534V27H59.4884V7.60193L79.8344 27H71.5761ZM54.2694 27V21.0874H39.0424V15.835H53.9495V10.8544H39.0424V5.91262H54.0295V0H31.6338V26.9806H54.2694V27ZM18.9563 8.85437C18.9563 11.4078 18.3164 11.5243 15.7669 11.5243H7.38856V5.9029H16.6468C18.7263 5.9029 18.9663 6.40775 18.9663 8.84465L18.9563 8.85437Z" fill="white"/>
</svg>
